<svg width="1260" height="930" viewBox="0 0 1260 930" fill="none" xmlns="http://www.w3.org/2000/svg">
    <path d="M300 150C260.603 150 221.593 157.76 185.195 172.836C148.797 187.912 115.726 210.01 87.8679 237.868C60.0104 265.725 37.9125 298.797 22.8361 335.195C7.75968 371.593 -3.90311e-05 410.603 -4.24753e-05 450L300 450L300 150Z" fill="#5C0A0A"/>
    <path d="M600 450C600 410.603 592.24 371.593 577.164 335.195C562.087 298.797 539.99 265.725 512.132 237.868C484.274 210.01 451.203 187.912 414.805 172.836C378.407 157.76 339.397 150 300 150L300 450L600 450Z" fill="#B01F44"/>
    <path d="M600 450C600 410.603 592.24 371.593 577.164 335.195C562.087 298.797 539.99 265.726 512.132 237.868C484.274 210.01 451.203 187.913 414.805 172.836C378.407 157.76 339.397 150 300 150L300 195C333.487 195 366.646 201.596 397.584 214.411C428.522 227.226 456.633 246.009 480.312 269.688C503.991 293.367 522.774 321.478 535.589 352.416C548.404 383.354 555 416.513 555 450L600 450Z" fill="#FAB125"/>
    <path d="M300 750C339.397 750 378.407 742.24 414.805 727.164C451.203 712.087 484.274 689.99 512.132 662.132C539.99 634.274 562.087 601.203 577.164 564.805C592.24 528.407 600 489.397 600 450L300 450L300 750Z" fill="#B01F44"/>
    <path d="M-4.24753e-05 450C-4.59194e-05 489.397 7.75967 528.407 22.8361 564.805C37.9125 601.203 60.0103 634.274 87.8679 662.132C115.726 689.99 148.797 712.087 185.195 727.164C221.593 742.24 260.603 750 300 750L300 450L-4.24753e-05 450Z" fill="#5C0A0A"/>
    <path d="M450 -2.12376e-05C430.302 -2.38207e-05 410.796 3.87983 392.597 11.418C374.399 18.9562 357.863 30.0052 343.934 43.934C330.005 57.8627 318.956 74.3986 311.418 92.5975C303.88 110.796 300 130.302 300 150L450 150L450 -2.12376e-05Z" fill="#09773B"/>
    <path d="M450 150C469.698 150 489.204 146.12 507.403 138.582C525.601 131.044 542.137 119.995 556.066 106.066C569.995 92.1372 581.044 75.6014 588.582 57.4025C596.12 39.2037 600 19.6983 600 0L450 0L450 150Z" fill="#0F3B13"/>
    <path d="M300 750C339.397 750 378.407 742.24 414.805 727.164C451.203 712.087 484.274 689.99 512.132 662.132C539.99 634.274 562.087 601.203 577.164 564.805C592.24 528.407 600 489.397 600 450L555 450C555 483.487 548.404 516.646 535.589 547.584C522.774 578.522 503.991 606.633 480.312 630.312C456.633 653.991 428.522 672.774 397.584 685.589C366.646 698.404 333.487 705 300 705L300 750Z" fill="#FAB125"/>
    <rect x="660" y="328.571" width="600" height="302.857" fill="#5C0A0A"/>
    <rect x="660" y="630" width="300" height="300" fill="#FF7A00"/>
    <path d="M660 630C699.397 630 738.407 622.24 774.805 607.164C811.203 592.087 844.274 569.99 872.132 542.132C899.99 514.274 922.087 481.203 937.164 444.805C952.24 408.407 960 369.397 960 330L660 330L660 630Z" fill="#B01F44"/>
    <path d="M960 930C999.397 930 1038.41 922.24 1074.81 907.164C1111.2 892.087 1144.27 869.99 1172.13 842.132C1199.99 814.274 1222.09 781.203 1237.16 744.805C1252.24 708.407 1260 669.397 1260 630L960 630L960 930Z" fill="#B01F44"/>
    <path d="M960 630C999.397 630 1038.41 622.24 1074.81 607.164C1111.2 592.087 1144.27 569.99 1172.13 542.132C1199.99 514.274 1222.09 481.203 1237.16 444.805C1252.24 408.407 1260 369.397 1260 330L960 330L960 630Z" fill="#B01F44"/>
    <path d="M810 180C790.302 180 770.796 183.88 752.597 191.418C734.399 198.956 717.863 210.005 703.934 223.934C690.005 237.863 678.956 254.399 671.418 272.597C663.88 290.796 660 310.302 660 330L810 330L810 180Z" fill="#FF7A00"/>
    <path d="M1110 180C1090.3 180 1070.8 183.88 1052.6 191.418C1034.4 198.956 1017.86 210.005 1003.93 223.934C990.005 237.863 978.956 254.399 971.418 272.597C963.88 290.796 960 310.302 960 330L1110 330L1110 180Z" fill="#FF7A00"/>
    <path d="M960 180C940.302 180 920.796 183.88 902.597 191.418C884.399 198.956 867.863 210.005 853.934 223.934C840.005 237.863 828.956 254.399 821.418 272.597C813.88 290.796 810 310.302 810 330L960 330L960 180Z" fill="#5C0A0A"/>
    <path d="M1260 180C1240.3 180 1220.8 183.88 1202.6 191.418C1184.4 198.956 1167.86 210.005 1153.93 223.934C1140.01 237.863 1128.96 254.399 1121.42 272.597C1113.88 290.796 1110 310.302 1110 330L1260 330L1260 180Z" fill="#B01F44"/>
</svg>
    