<svg width="450" height="600" viewBox="0 0 450 600" fill="none" xmlns="http://www.w3.org/2000/svg">
    <circle cx="225" cy="525" r="75" fill="#B01F44"/>
    <path d="M300 150C319.698 150 339.204 146.12 357.403 138.582C375.601 131.044 392.137 119.995 406.066 106.066C419.995 92.1372 431.044 75.6014 438.582 57.4025C446.12 39.2037 450 19.6983 450 0L399 0C399 13.0009 396.439 25.8744 391.464 37.8857C386.489 49.8969 379.197 60.8106 370.004 70.0036C360.811 79.1966 349.897 86.4889 337.886 91.4641C325.874 96.4393 313.001 99 300 99L300 150Z" fill="#B01F44"/>
    <path d="M300 300C319.698 300 339.204 296.12 357.403 288.582C375.601 281.044 392.137 269.995 406.066 256.066C419.995 242.137 431.044 225.601 438.582 207.403C446.12 189.204 450 169.698 450 150H399C399 163.001 396.439 175.874 391.464 187.886C386.489 199.897 379.197 210.811 370.004 220.004C360.811 229.197 349.897 236.489 337.886 241.464C325.874 246.439 313.001 249 300 249L300 300Z" fill="#E9410C"/>
    <path d="M300 300C280.302 300 260.796 303.88 242.597 311.418C224.399 318.956 207.863 330.005 193.934 343.934C180.005 357.863 168.956 374.399 161.418 392.597C153.88 410.796 150 430.302 150 450L201 450C201 436.999 203.561 424.126 208.536 412.114C213.511 400.103 220.803 389.189 229.996 379.996C239.189 370.803 250.103 363.511 262.114 358.536C274.126 353.561 286.999 351 300 351L300 300Z" fill="#E9410C"/>
    <path d="M300 -1.15768e-05C260.603 -1.6743e-05 221.593 7.7597 185.195 22.8361C148.797 37.9125 115.726 60.0104 87.868 87.8679C60.0104 115.726 37.9125 148.797 22.8361 185.195C7.75971 221.593 -8.13264e-06 260.603 -1.15768e-05 300L300 300L300 -1.15768e-05Z" fill="#FF7A00"/>
    <path d="M300 -1.31134e-05C260.603 -1.13913e-05 221.593 7.7597 185.195 22.8361C148.797 37.9125 115.726 60.0104 87.8679 87.8679C60.0104 115.726 37.9125 148.797 22.8361 185.195C7.75972 221.593 -3.44416e-06 260.603 0 300L102 300C102 273.998 107.121 248.251 117.072 224.229C127.022 200.206 141.607 178.379 159.993 159.993C178.379 141.607 200.206 127.022 224.229 117.072C248.251 107.121 273.998 102 300 102L300 -1.31134e-05Z" fill="#B01F44"/>
</svg>
