<svg width="1260" height="930" viewBox="0 0 1260 930" fill="none" xmlns="http://www.w3.org/2000/svg">
    <path fill-rule="evenodd" clip-rule="evenodd" d="M577.164 335.195C592.24 371.593 600 410.603 600 450C600 489.397 592.24 528.407 577.164 564.805C562.087 601.203 539.99 634.275 512.132 662.132C484.275 689.99 451.203 712.088 414.805 727.164C378.407 742.24 339.397 750 300 750V450L300 150C339.397 150 378.407 157.76 414.805 172.836C451.203 187.913 484.274 210.01 512.132 237.868C539.99 265.726 562.087 298.797 577.164 335.195Z" fill="#B01F44"/>
    <path fill-rule="evenodd" clip-rule="evenodd" d="M185.195 172.836C221.593 157.76 260.603 150 300 150L300 450V750C260.603 750 221.593 742.24 185.195 727.164C148.797 712.088 115.726 689.99 87.868 662.132C60.0104 634.275 37.9125 601.203 22.8361 564.805C7.7597 528.407 0 489.397 0 450C3.44416e-06 410.603 7.75971 371.593 22.8361 335.195C37.9125 298.797 60.0104 265.726 87.868 237.868C115.726 210.01 148.797 187.913 185.195 172.836Z" fill="#5C0A0A"/>
    <path d="M450 -1.52588e-05C430.302 -1.69809e-05 410.796 3.87983 392.597 11.418C374.399 18.9562 357.863 30.0052 343.934 43.934C330.005 57.8628 318.956 74.3986 311.418 92.5975C303.88 110.796 300 130.302 300 150L450 150L450 -1.52588e-05Z" fill="#09773B"/>
    <path d="M450 150C469.698 150 489.204 146.12 507.403 138.582C525.601 131.044 542.137 119.995 556.066 106.066C569.995 92.1372 581.044 75.6014 588.582 57.4025C596.12 39.2037 600 19.6983 600 0L450 0L450 150Z" fill="#0F3B13"/>
    <path fill-rule="evenodd" clip-rule="evenodd" d="M577.164 335.195C592.24 371.593 600 410.603 600 450C600 489.397 592.24 528.407 577.164 564.805C562.087 601.203 539.99 634.274 512.132 662.132C484.274 689.99 451.203 712.087 414.805 727.164C378.407 742.24 339.397 750 300 750L300 705C333.487 705 366.646 698.404 397.584 685.589C428.522 672.774 456.633 653.991 480.312 630.312C503.991 606.633 522.774 578.522 535.589 547.584C548.404 516.646 555 483.487 555 450C555 416.513 548.404 383.354 535.589 352.416C522.774 321.478 503.991 293.367 480.312 269.688C456.633 246.009 428.522 227.226 397.584 214.411C366.646 201.596 333.487 195 300 195L300 150C339.397 150 378.407 157.76 414.805 172.836C451.203 187.913 484.274 210.01 512.132 237.868C539.99 265.726 562.087 298.797 577.164 335.195Z" fill="#FAB125"/>
    <rect x="660" y="328.571" width="600" height="302.857" fill="#5C0A0A"/>
    <rect x="660" y="630" width="300" height="300" fill="#FF7A00"/>
    <path d="M660 630C699.397 630 738.407 622.24 774.805 607.164C811.203 592.087 844.274 569.99 872.132 542.132C899.99 514.274 922.087 481.203 937.164 444.805C952.24 408.407 960 369.397 960 330L660 330L660 630Z" fill="#B01F44"/>
    <path d="M960 930C999.397 930 1038.41 922.24 1074.81 907.164C1111.2 892.087 1144.27 869.99 1172.13 842.132C1199.99 814.274 1222.09 781.203 1237.16 744.805C1252.24 708.407 1260 669.397 1260 630L960 630L960 930Z" fill="#B01F44"/>
    <path d="M810 180C790.302 180 770.796 183.88 752.597 191.418C734.399 198.956 717.863 210.005 703.934 223.934C690.005 237.863 678.956 254.399 671.418 272.597C663.88 290.796 660 310.302 660 330L810 330L810 180Z" fill="#FF7A00"/>
    <path d="M1110 180C1090.3 180 1070.8 183.88 1052.6 191.418C1034.4 198.956 1017.86 210.005 1003.93 223.934C990.005 237.863 978.956 254.399 971.418 272.597C963.88 290.796 960 310.302 960 330L1110 330L1110 180Z" fill="#FF7A00"/>
    <path d="M960 180C940.302 180 920.796 183.88 902.597 191.418C884.399 198.956 867.863 210.005 853.934 223.934C840.005 237.863 828.956 254.399 821.418 272.597C813.88 290.796 810 310.302 810 330L960 330L960 180Z" fill="#5C0A0A"/>
    <path fill-rule="evenodd" clip-rule="evenodd" d="M1202.6 191.418C1220.8 183.88 1240.3 180 1260 180V330C1260 369.397 1252.24 408.407 1237.16 444.805C1222.09 481.203 1199.99 514.274 1172.13 542.132C1144.27 569.99 1111.2 592.087 1074.81 607.164C1038.41 622.24 999.397 630 960 630L960 330L1110 330C1110 310.302 1113.88 290.796 1121.42 272.597C1128.96 254.399 1140.01 237.863 1153.93 223.934C1167.86 210.005 1184.4 198.956 1202.6 191.418Z" fill="#B01F44"/>
</svg>
