<svg width="600" height="300" viewBox="0 0 600 300" fill="none" xmlns="http://www.w3.org/2000/svg">
<path d="M374.5 225C384.349 225 394.102 223.06 403.201 219.291C412.301 215.522 420.569 209.997 427.533 203.033C434.497 196.069 440.022 187.801 443.791 178.701C447.56 169.602 449.5 159.849 449.5 150L374.5 150L374.5 225Z" fill="#B01F44"/>
<path fill-rule="evenodd" clip-rule="evenodd" d="M299.5 225C309.349 225 319.102 223.06 328.201 219.291C337.301 215.522 345.569 209.997 352.533 203.033C359.497 196.069 365.022 187.801 368.791 178.701C372.56 169.602 374.5 159.849 374.5 150H299.5L299.5 225ZM450 225C459.849 225 469.602 223.06 478.701 219.291C487.801 215.522 496.069 209.997 503.033 203.033C509.997 196.069 515.522 187.801 519.291 178.701C523.06 169.602 525 159.849 525 150V225C534.849 225 544.602 223.06 553.701 219.291C562.801 215.522 571.069 209.997 578.033 203.033C584.997 196.069 590.522 187.801 594.291 178.701C598.06 169.602 600 159.849 600 150H525H450V225Z" fill="#B01F44"/>
<path fill-rule="evenodd" clip-rule="evenodd" d="M37.5 150C37.5 154.925 38.47 159.801 40.3545 164.351C42.2391 168.9 45.0013 173.034 48.4835 176.517C51.9657 179.999 56.0997 182.761 60.6494 184.645C65.1991 186.53 70.0754 187.5 75 187.5C79.9246 187.5 84.8009 186.53 89.3506 184.645C93.9003 182.761 98.0343 179.999 101.517 176.517C104.999 173.034 107.761 168.9 109.645 164.351C111.53 159.801 112.5 154.925 112.5 150L150 150L300 150C300 169.698 296.12 189.204 288.582 207.403C281.044 225.601 269.995 242.137 256.066 256.066C242.137 269.995 225.601 281.044 207.403 288.582C189.204 296.12 169.698 300 150 300C130.302 300 110.796 296.12 92.5975 288.582C74.3986 281.044 57.8628 269.995 43.934 256.066C30.0052 242.137 18.9563 225.601 11.4181 207.403C3.87986 189.204 0 169.698 0 150L37.5 150Z" fill="#E9410C"/>
<path fill-rule="evenodd" clip-rule="evenodd" d="M92.5975 11.4181C110.796 3.87985 130.302 -8.37151e-06 150 -5.7884e-06C169.698 -3.20528e-06 189.204 3.87986 207.403 11.4181C225.601 18.9563 242.137 30.0052 256.066 43.934C265.355 53.2231 273.363 63.6718 279.904 75H300H375H450H525C534.849 75 544.602 76.9399 553.701 80.709C562.801 84.4781 571.069 90.0026 578.033 96.967C584.997 103.931 590.522 112.199 594.291 121.299C598.06 130.398 600 140.151 600 150H525H450H375L300 150L225 150H150H112.5C112.5 145.075 111.53 140.199 109.645 135.649C107.761 131.1 104.999 126.966 101.517 123.483C98.0343 120.001 93.9003 117.239 89.3506 115.355C84.8009 113.47 79.9246 112.5 75 112.5C70.0754 112.5 65.1991 113.47 60.6494 115.355C56.0997 117.239 51.9657 120.001 48.4835 123.483C45.0013 126.966 42.2391 131.1 40.3545 135.649C38.47 140.199 37.5 145.075 37.5 150L-5.7884e-06 150C-4.06632e-06 130.302 3.87986 110.796 11.4181 92.5975C18.9563 74.3986 30.0052 57.8628 43.934 43.934C57.8628 30.0052 74.3987 18.9563 92.5975 11.4181Z" fill="#FAB125"/>
</svg>
