<svg width="240" height="1200" viewBox="0 0 240 1200" fill="none" xmlns="http://www.w3.org/2000/svg">
<rect width="240" height="1200" fill="#E9410C"/>
<path d="M240 120C224.241 120 208.637 123.104 194.078 129.134C179.519 135.165 166.29 144.004 155.147 155.147C144.004 166.29 135.165 179.519 129.134 194.078C123.104 208.637 120 224.241 120 240L240 240L240 120Z" fill="#B01F44"/>
<path d="M240 120C224.241 120 208.637 123.104 194.078 129.134C179.519 135.165 166.29 144.004 155.147 155.147C144.004 166.29 135.165 179.519 129.134 194.078C123.104 208.637 120 224.241 120 240L138 240C138 226.605 140.638 213.341 145.764 200.966C150.89 188.591 158.404 177.347 167.875 167.875C177.347 158.404 188.591 150.89 200.966 145.764C213.341 140.638 226.605 138 240 138L240 120Z" fill="#FF7A00"/>
<path d="M0 360C15.7586 360 31.3629 356.896 45.922 350.866C60.4811 344.835 73.7098 335.996 84.8528 324.853C95.9958 313.71 104.835 300.481 110.866 285.922C116.896 271.363 120 255.759 120 240L5.24536e-06 240L0 360Z" fill="#FF7A00"/>
<path d="M0 600C15.7586 600 31.3629 596.896 45.922 590.866C60.4811 584.835 73.7098 575.996 84.8528 564.853C95.9958 553.71 104.835 540.481 110.866 525.922C116.896 511.363 120 495.759 120 480L5.24536e-06 480L0 600Z" fill="#B01F44"/>
<path d="M0 840C15.7586 840 31.3629 836.896 45.922 830.866C60.4811 824.835 73.7098 815.996 84.8528 804.853C95.9958 793.71 104.835 780.481 110.866 765.922C116.896 751.363 120 735.759 120 720L5.24536e-06 720L0 840Z" fill="#FF7A00"/>
<path d="M0 120C15.7586 120 31.3629 116.896 45.922 110.866C60.4811 104.835 73.7098 95.9958 84.8528 84.8528C95.9958 73.7098 104.835 60.4811 110.866 45.922C116.896 31.3629 120 15.7586 120 0L5.24536e-06 0L0 120Z" fill="#B01F44"/>
<path d="M3.39746e-05 360C15.7587 360 31.363 356.896 45.922 350.866C60.4811 344.835 73.7098 335.996 84.8528 324.853C95.9959 313.71 104.835 300.481 110.866 285.922C116.896 271.363 120 255.759 120 240L102 240C102 253.395 99.3617 266.659 94.2357 279.034C89.1098 291.409 81.5965 302.653 72.1249 312.125C62.6533 321.596 51.4089 329.11 39.0337 334.236C26.6585 339.362 13.3949 342 3.55483e-05 342L3.39746e-05 360Z" fill="#B01F44"/>
<path d="M3.39746e-05 600C15.7587 600 31.363 596.896 45.922 590.866C60.4811 584.835 73.7098 575.996 84.8528 564.853C95.9959 553.71 104.835 540.481 110.866 525.922C116.896 511.363 120 495.759 120 480L102 480C102 493.395 99.3617 506.659 94.2357 519.034C89.1098 531.409 81.5965 542.653 72.1249 552.125C62.6533 561.596 51.4089 569.11 39.0337 574.236C26.6585 579.362 13.3949 582 3.55483e-05 582L3.39746e-05 600Z" fill="#FF7A00"/>
<path d="M3.39746e-05 840C15.7587 840 31.363 836.896 45.922 830.866C60.4811 824.835 73.7098 815.996 84.8528 804.853C95.9959 793.71 104.835 780.481 110.866 765.922C116.896 751.363 120 735.759 120 720L102 720C102 733.395 99.3617 746.659 94.2357 759.034C89.1098 771.409 81.5965 782.653 72.1249 792.125C62.6533 801.596 51.4089 809.11 39.0337 814.236C26.6585 819.362 13.3949 822 3.55483e-05 822L3.39746e-05 840Z" fill="#5C0A0A"/>
<path d="M3.39746e-05 120C15.7587 120 31.363 116.896 45.922 110.866C60.4811 104.835 73.7098 95.9958 84.8528 84.8528C95.9959 73.7098 104.835 60.4811 110.866 45.922C116.896 31.363 120 15.7586 120 2.17676e-05L102 2.0194e-05C102 13.3948 99.3617 26.6585 94.2357 39.0337C89.1098 51.4089 81.5965 62.6533 72.1249 72.1249C62.6533 81.5965 51.4089 89.1097 39.0337 94.2357C26.6585 99.3617 13.3949 102 3.55483e-05 102L3.39746e-05 120Z" fill="#5C0A0A"/>
<path d="M240 360C224.241 360 208.637 363.104 194.078 369.134C179.519 375.165 166.29 384.004 155.147 395.147C144.004 406.29 135.165 419.519 129.134 434.078C123.104 448.637 120 464.241 120 480L240 480L240 360Z" fill="#B01F44"/>
<path d="M240 360C224.241 360 208.637 363.104 194.078 369.134C179.519 375.165 166.29 384.004 155.147 395.147C144.004 406.29 135.165 419.519 129.134 434.078C123.104 448.637 120 464.241 120 480L138 480C138 466.605 140.638 453.341 145.764 440.966C150.89 428.591 158.404 417.347 167.875 407.875C177.347 398.404 188.591 390.89 200.966 385.764C213.341 380.638 226.605 378 240 378L240 360Z" fill="#5C0A0A"/>
<path d="M240 600C224.241 600 208.637 603.104 194.078 609.134C179.519 615.165 166.29 624.004 155.147 635.147C144.004 646.29 135.165 659.519 129.134 674.078C123.104 688.637 120 704.241 120 720L240 720L240 600Z" fill="#FF7A00"/>
<path d="M240 1080C224.241 1080 208.637 1083.1 194.078 1089.13C179.519 1095.17 166.29 1104 155.147 1115.15C144.004 1126.29 135.165 1139.52 129.134 1154.08C123.104 1168.64 120 1184.24 120 1200L240 1200L240 1080Z" fill="#B01F44"/>
<path d="M240 600C224.241 600 208.637 603.104 194.078 609.134C179.519 615.165 166.29 624.004 155.147 635.147C144.004 646.29 135.165 659.519 129.134 674.078C123.104 688.637 120 704.241 120 720L138 720C138 706.605 140.638 693.341 145.764 680.966C150.89 668.591 158.404 657.347 167.875 647.875C177.347 638.404 188.591 630.89 200.966 625.764C213.341 620.638 226.605 618 240 618L240 600Z" fill="#B01F44"/>
<path d="M240 1080C224.241 1080 208.637 1083.1 194.078 1089.13C179.519 1095.17 166.29 1104 155.147 1115.15C144.004 1126.29 135.165 1139.52 129.134 1154.08C123.104 1168.64 120 1184.24 120 1200L138 1200C138 1186.61 140.638 1173.34 145.764 1160.97C150.89 1148.59 158.404 1137.35 167.875 1127.88C177.347 1118.4 188.591 1110.89 200.966 1105.76C213.341 1100.64 226.605 1098 240 1098L240 1080Z" fill="#FF7A00"/>
<path fill-rule="evenodd" clip-rule="evenodd" d="M230.866 914.078C236.896 928.637 240 944.241 240 960C240 975.759 236.896 991.363 230.866 1005.92C224.835 1020.48 215.996 1033.71 204.853 1044.85C193.71 1056 180.481 1064.83 165.922 1070.87C151.363 1076.9 135.759 1080 120 1080V960L120 840C135.759 840 151.363 843.104 165.922 849.134C180.481 855.165 193.71 864.004 204.853 875.147C215.996 886.29 224.835 899.519 230.866 914.078Z" fill="#FF7A00"/>
<path fill-rule="evenodd" clip-rule="evenodd" d="M74.078 849.134C88.6371 843.104 104.241 840 120 840L120 960V1080C104.241 1080 88.637 1076.9 74.078 1070.87C59.5189 1064.83 46.2902 1056 35.1472 1044.85C24.0042 1033.71 15.165 1020.48 9.13445 1005.92C3.10389 991.363 0 975.759 0 960C0 944.241 3.10389 928.637 9.13445 914.078C15.165 899.519 24.0042 886.29 35.1472 875.147C46.2902 864.004 59.5189 855.165 74.078 849.134Z" fill="#B01F44"/>
<path d="M180 780C172.121 780 164.319 781.552 157.039 784.567C149.759 787.583 143.145 792.002 137.574 797.574C132.002 803.145 127.583 809.759 124.567 817.039C121.552 824.319 120 832.121 120 840L180 840L180 780Z" fill="#09773B"/>
<path d="M180 840C187.879 840 195.681 838.448 202.961 835.433C210.241 832.417 216.855 827.998 222.426 822.426C227.998 816.855 232.417 810.241 235.433 802.961C238.448 795.681 240 787.879 240 780L180 780L180 840Z" fill="#0F3B13"/>
<path d="M-5.24537e-06 960C-3.8677e-06 975.759 3.10389 991.363 9.13445 1005.92C15.165 1020.48 24.0042 1033.71 35.1472 1044.85C46.2902 1056 59.5189 1064.83 74.078 1070.87C88.6371 1076.9 104.241 1080 120 1080L120 1062C106.605 1062 93.3415 1059.36 80.9663 1054.24C68.5911 1049.11 57.3467 1041.6 47.8751 1032.12C38.4035 1022.65 30.8903 1011.41 25.7643 999.034C20.6383 986.659 18 973.395 18 960L-5.24537e-06 960Z" fill="#5C0A0A"/>
<path d="M120 840C104.241 840 88.637 843.104 74.078 849.134C59.5189 855.165 46.2902 864.004 35.1472 875.147C24.0041 886.29 15.165 899.519 9.13445 914.078C3.10389 928.637 -1.37766e-06 944.241 0 960H18C18 946.605 20.6383 933.341 25.7643 920.966C30.8903 908.591 38.4035 897.347 47.8751 887.875C57.3467 878.404 68.5911 870.89 80.9663 865.764C93.3415 860.638 106.605 858 120 858L120 840Z" fill="#5C0A0A"/>
</svg>
