<svg width="450" height="563" viewBox="0 0 450 563" fill="none" xmlns="http://www.w3.org/2000/svg">
    <rect y="111.429" width="450" height="227.143" fill="#5C0A0A"/>
    <rect y="337.5" width="225" height="225" fill="#E9410C"/>
    <path d="M0 337.5C29.5474 337.5 58.8055 331.68 86.1038 320.373C113.402 309.066 138.206 292.492 159.099 271.599C179.992 250.706 196.566 225.902 207.873 198.604C219.18 171.306 225 142.047 225 112.5L9.83506e-06 112.5L0 337.5Z" fill="#B01F44"/>
    <path d="M225 562.5C254.547 562.5 283.806 556.68 311.104 545.373C338.402 534.066 363.206 517.492 384.099 496.599C404.992 475.706 421.566 450.902 432.873 423.604C444.18 396.306 450 367.048 450 337.5L225 337.5L225 562.5Z" fill="#B01F44"/>
    <path d="M225 337.5C254.547 337.5 283.806 331.681 311.104 320.373C338.402 309.066 363.206 292.493 384.099 271.599C404.992 250.706 421.566 225.902 432.873 198.604C444.18 171.306 450 142.048 450 112.5L225 112.5L225 337.5Z" fill="#E9410C"/>
    <path d="M112.5 0.000755117C97.7263 0.000753179 83.0973 2.91065 69.4481 8.5643C55.799 14.2179 43.3971 22.5046 32.9505 32.9512C22.5039 43.3978 14.2172 55.7997 8.56357 69.4488C2.90992 83.098 2.39864e-05 97.727 2.26949e-05 112.501L112.5 112.501L112.5 0.000755117Z" fill="#FF7A00"/>
    <path d="M337.5 2.26949e-05C322.726 2.07575e-05 308.097 2.90991 294.448 8.56357C280.799 14.2172 268.397 22.5039 257.951 32.9505C247.504 43.3971 239.217 55.799 233.564 69.4481C227.91 83.0972 225 97.7263 225 112.5L337.5 112.5L337.5 2.26949e-05Z" fill="#FF7A00"/>
    <path d="M225 0.000510976C210.226 0.000509039 195.597 2.9104 181.948 8.56405C168.299 14.2177 155.897 22.5044 145.451 32.951C135.004 43.3976 126.717 55.7995 121.064 69.4486C115.41 83.0977 112.5 97.7268 112.5 112.5L225 112.5L225 0.000510976Z" fill="#E9410C"/>
    <path d="M450 0.000388906C435.226 0.000386968 420.597 2.91028 406.948 8.56393C393.299 14.2176 380.897 22.5043 370.451 32.9509C360.004 43.3975 351.717 55.7994 346.064 69.4485C340.41 83.0976 337.5 97.7266 337.5 112.5L450 112.5L450 0.000388906Z" fill="#B01F44"/>
</svg>    