<svg width="900" height="675" viewBox="0 0 900 675" fill="none" xmlns="http://www.w3.org/2000/svg">
    <path d="M675 225C675 195.453 669.18 166.194 657.873 138.896C646.566 111.598 629.992 86.7941 609.099 65.901C588.206 45.0078 563.402 28.4344 536.104 17.1271C508.806 5.81979 479.547 -6.0563e-07 450 -9.5798e-07L450 225L675 225Z" fill="#FF7A00"/>
    <path d="M225 225C254.547 225 283.806 219.18 311.104 207.873C338.402 196.566 363.206 179.992 384.099 159.099C404.992 138.206 421.566 113.402 432.873 86.1037C444.18 58.8055 450 29.5474 450 -3.93402e-05L225 0L225 225Z" fill="#0F3B13"/>
    <path fill-rule="evenodd" clip-rule="evenodd" d="M34.2542 397.208C11.6396 342.611 -7.0822e-06 284.095 -1.91596e-06 225L450 225L900 225C900 284.095 888.36 342.611 865.746 397.208C843.131 451.804 809.984 501.412 768.198 543.198C726.412 584.984 676.804 618.131 622.208 640.746C567.611 663.36 509.095 675 450 675C390.905 675 332.389 663.36 277.792 640.746C223.196 618.131 173.588 584.984 131.802 543.198C90.0156 501.412 56.8688 451.804 34.2542 397.208Z" fill="#FEF6F6"/>
</svg>
    