<svg width="1350" height="900" viewBox="0 0 1350 900" fill="none" xmlns="http://www.w3.org/2000/svg">
    <path d="M436.5 505L0 0H450L712.5 505H436.5Z" fill="#E9410C"/>
    <path d="M450 900C568.19 900 685.222 876.721 794.415 831.492C903.608 786.263 1002.82 719.969 1086.4 636.396C1169.97 552.824 1236.26 453.608 1281.49 344.415C1326.72 235.222 1350 118.19 1350 0.00031281L450 0.000155449L450 900Z" fill="#FF7A00"/>
    <path d="M5.9881e-05 450C5.14269e-05 509.095 11.6396 567.611 34.2542 622.208C56.8688 676.804 90.0156 726.412 131.802 768.198C173.588 809.985 223.196 843.131 277.792 865.746C332.389 888.361 390.905 900 450 900L450 450L5.9881e-05 450Z" fill="#5C0A0A"/>
    <path d="M450 450C450 390.905 438.36 332.389 415.746 277.793C393.131 223.196 359.984 173.588 318.198 131.802C276.412 90.0157 226.804 56.869 172.208 34.2544C117.611 11.6397 59.0948 0.000178987 -1.96701e-05 0.00018157L0 450L450 450Z" fill="#B01F44"/>
    <path d="M450 900C568.19 900 685.222 876.721 794.415 831.492C903.608 786.262 1002.82 719.969 1086.4 636.396C1169.97 552.823 1236.26 453.608 1281.49 344.415C1326.72 235.222 1350 118.19 1350 4.1008e-05L1215 2.92059e-05C1215 100.461 1195.21 199.939 1156.77 292.753C1118.32 385.567 1061.97 469.9 990.937 540.937C919.9 611.974 835.567 668.323 742.753 706.768C649.939 745.213 550.461 765 450 765L450 900Z" fill="#09773B"/>
</svg>
    