<svg width="1350" height="900" viewBox="0 0 1350 900" fill="none" xmlns="http://www.w3.org/2000/svg">
    <path d="M900 450C900 390.905 888.36 332.389 865.746 277.792C843.131 223.196 809.984 173.588 768.198 131.802C726.412 90.0156 676.804 56.8688 622.208 34.2542C567.611 11.6396 509.095 2.63994e-05 450 2.89825e-05L450 450L900 450Z" fill="#B01F44"/>
    <path d="M900 450C900 390.905 888.36 332.389 865.746 277.792C843.131 223.196 809.984 173.588 768.198 131.802C726.412 90.0156 676.804 56.8688 622.208 34.2542C567.611 11.6396 509.095 -2.22608e-06 450 3.57038e-07L450 67.5C500.231 67.5 549.969 77.3936 596.376 96.6161C642.783 115.838 684.95 144.013 720.468 179.532C755.987 215.05 784.161 257.217 803.384 303.624C822.606 350.031 832.5 399.769 832.5 450L900 450Z" fill="#FF7A00"/>
    <path d="M450 5.05447e-05C390.905 5.31279e-05 332.389 11.6396 277.792 34.2543C223.196 56.8689 173.588 90.0156 131.802 131.802C90.0156 173.588 56.8688 223.196 34.2542 277.793C11.6396 332.389 -5.16623e-06 390.905 0 450H67.5C67.5 399.769 77.3936 350.031 96.6161 303.624C115.838 257.217 144.013 215.05 179.532 179.532C215.05 144.013 257.217 115.839 303.624 96.6161C350.031 77.3937 399.769 67.5 450 67.5V5.05447e-05Z" fill="#B01F44"/>
    <path d="M900 900C959.095 900 1017.61 888.361 1072.21 865.746C1126.8 843.131 1176.41 809.985 1218.2 768.198C1259.98 726.412 1293.13 676.804 1315.75 622.208C1338.36 567.611 1350 509.095 1350 450L900 450L900 900Z" fill="#5C0A0A"/>
    <path d="M2.89825e-05 450C2.38163e-05 509.095 11.6396 567.611 34.2542 622.208C56.8688 676.804 90.0156 726.412 131.802 768.198C173.588 809.984 223.196 843.131 277.792 865.746C332.389 888.36 390.905 900 450 900L450 450L2.89825e-05 450Z" fill="#B01F44"/>
    <path d="M900 900C959.095 900 1017.61 888.36 1072.21 865.746C1126.8 843.131 1176.41 809.984 1218.2 768.198C1259.98 726.412 1293.13 676.804 1315.75 622.208C1338.36 567.611 1350 509.095 1350 450L1282.5 450C1282.5 500.231 1272.61 549.969 1253.38 596.376C1234.16 642.783 1205.99 684.95 1170.47 720.468C1134.95 755.987 1092.78 784.162 1046.38 803.384C999.969 822.606 950.231 832.5 900 832.5L900 900Z" fill="#B01F44"/>
</svg>
    