<svg width="450" height="675" viewBox="0 0 450 675" fill="none" xmlns="http://www.w3.org/2000/svg">
    <path d="M450 225C450 195.453 444.18 166.194 432.873 138.896C421.566 111.598 404.992 86.7941 384.099 65.901C363.206 45.0078 338.402 28.4344 311.104 17.1271C283.806 5.81979 254.547 -6.0563e-07 225 -9.5798e-07L225 225L450 225Z" fill="#09773B"/>
    <path d="M225 -9.5798e-07C195.453 3.33579e-07 166.194 5.81979 138.896 17.1271C111.598 28.4344 86.7941 45.0078 65.9009 65.901C45.0078 86.7942 28.4344 111.598 17.1271 138.896C5.81978 166.195 -3.5411e-06 195.453 -9.5798e-07 225L225 225L225 -9.5798e-07Z" fill="#46E255"/>
    <path d="M-9.5798e-07 225C-3.5411e-06 254.547 5.81978 283.806 17.1271 311.104C28.4344 338.402 45.0078 363.206 65.901 384.099C86.7941 404.992 111.598 421.566 138.896 432.873C166.194 444.18 195.453 450 225 450L225 225L-9.5798e-07 225Z" fill="#09773B"/>
    <path d="M450 450C450 420.453 444.18 391.194 432.873 363.896C421.566 336.598 404.992 311.794 384.099 290.901C363.206 270.008 338.402 253.434 311.104 242.127C283.806 230.82 254.547 225 225 225L225 450L450 450Z" fill="#46E255"/>
    <path d="M225 675C254.547 675 283.806 669.18 311.104 657.873C338.402 646.566 363.206 629.992 384.099 609.099C404.992 588.206 421.566 563.402 432.873 536.104C444.18 508.806 450 479.547 450 450L225 450L225 675Z" fill="#09773B"/>
    <path d="M-9.5798e-07 450C-1.89719e-06 479.547 5.81979 508.806 17.1271 536.104C28.4344 563.402 45.0078 588.206 65.901 609.099C86.7942 629.992 111.598 646.566 138.896 657.873C166.194 669.18 195.453 675 225 675L225 450L-9.5798e-07 450Z" fill="#FAB125"/>
</svg>
    