<svg width="512" height="512" viewBox="0 0 512 512" fill="none" xmlns="http://www.w3.org/2000/svg">
    <title>Rusbé</title>
    <path class="part-text" d="M80.8131 392.947C61.2668 392.947 45.6627 389.416 34.0006 382.353C21.0245 374.961 14.5365 364.038 14.5365 349.584V222.698C4.8455 209.064 0 192.311 0 172.436C0 152.397 4.8455 135.068 14.5365 120.449H52.2328C71.6148 120.449 85.4943 126.691 93.8713 139.174C89.7649 143.773 86.1513 149.604 83.0305 156.667C79.9097 163.73 78.3492 168.822 78.3492 171.943C78.3492 174.9 79.0884 177.117 80.5667 178.595C82.2092 180.074 84.5088 180.813 87.4653 180.813C93.2142 157.981 104.137 141.227 120.234 130.551C133.539 121.517 149.964 117 169.51 117C193.82 117 212.873 122.174 226.671 132.522C231.598 145.662 234.062 161.759 234.062 180.813C234.062 199.702 230.284 216.867 222.729 232.306C217.144 235.263 209.424 237.809 199.569 239.944C189.714 241.915 179.776 242.901 169.757 242.901C159.737 242.901 150.703 242.244 142.655 240.93C134.771 239.451 129.022 238.137 125.408 236.988C124.094 238.302 123.437 240.191 123.437 242.654C123.437 245.118 124.997 247.007 128.118 248.321C131.403 249.471 136.824 250.785 144.379 252.263V375.947C126.476 387.28 105.287 392.947 80.8131 392.947Z" fill="#ff7a00"/>
    <path class="part-text" d="M366.881 282.322C368.852 282.322 370.988 281.501 373.287 279.858C371.645 274.438 370.824 265.979 370.824 254.481V132.768C388.234 122.256 409.177 117 433.651 117C447.448 117 459.521 118.889 469.869 122.667C480.381 126.28 488.43 131.126 494.014 137.203V265.568C494.014 290.042 499.927 305.974 511.754 313.366C511.918 314.187 512 315.748 512 318.047V322.482C512 346.463 505.676 364.613 493.029 376.932C481.531 388.43 465.68 394.179 445.477 394.179C432.829 394.179 421.332 391.304 410.984 385.556C400.8 379.807 393.162 371.43 388.07 360.425C382.486 360.425 379.693 363.135 379.693 368.555C379.693 372.333 381.582 376.111 385.36 379.889C380.104 384.159 373.78 387.609 366.389 390.237C358.997 392.865 348.074 394.179 333.62 394.179C319.33 394.179 305.368 391.222 291.735 385.309C274.817 378.082 261.841 366.995 252.807 352.048C241.802 334.308 236.299 311.805 236.299 284.539V222.698C227.922 208.079 223.734 191.982 223.734 174.407C223.734 165.373 224.884 156.01 227.183 146.319C229.483 136.628 233.179 128.005 238.27 120.449H292.474C312.842 120.449 328.774 125.295 340.272 134.986C351.934 144.513 357.765 159.049 357.765 178.595V258.423C357.765 274.355 360.804 282.322 366.881 282.322Z" fill="#ff7a00"/>
    <style>
        .part-text { fill: #ff7a00 }
        @media (prefers-color-scheme: dark) {
            .part-text { fill: #FEE7E5 }
        }
    </style>
</svg>    