<svg width="16" height="16" viewBox="0 0 16 16" fill="none" xmlns="http://www.w3.org/2000/svg">
<path d="M2.52541 12.6233C1.91459 12.6233 1.42696 12.513 1.06252 12.2923C0.657017 12.0613 0.454265 11.7199 0.454265 11.2682V7.30305C0.151422 6.87701 0 6.35345 0 5.73237C0 5.10615 0.151422 4.56462 0.454265 4.10779H1.63228C2.23796 4.10779 2.6717 4.30284 2.93348 4.69295C2.80515 4.83667 2.69223 5.01889 2.5947 5.23961C2.49718 5.46032 2.44841 5.61944 2.44841 5.71697C2.44841 5.80936 2.47151 5.87866 2.51771 5.92485C2.56904 5.97105 2.6409 5.99415 2.73329 5.99415C2.91295 5.28067 3.25429 4.75711 3.75731 4.42347C4.17308 4.14116 4.68638 4 5.2972 4C6.05687 4 6.65229 4.16169 7.08346 4.48506C7.23745 4.8957 7.31444 5.39873 7.31444 5.99415C7.31444 6.58444 7.19639 7.12083 6.96027 7.60333C6.78575 7.69572 6.5445 7.77528 6.23653 7.84201C5.92855 7.9036 5.61801 7.9344 5.3049 7.9344C4.99179 7.9344 4.70948 7.91387 4.45796 7.87281C4.21158 7.82661 4.03193 7.78555 3.919 7.74961C3.87794 7.79068 3.85741 7.84971 3.85741 7.9267C3.85741 8.0037 3.90617 8.06272 4.0037 8.10379C4.10635 8.13972 4.27574 8.18078 4.51186 8.22698V12.0921C3.95237 12.4463 3.29022 12.6233 2.52541 12.6233Z" fill="black"/>
<path d="M11.465 9.16631C11.5266 9.16631 11.5934 9.14064 11.6652 9.08931C11.6139 8.91993 11.5882 8.65558 11.5882 8.29627V4.49276C12.1323 4.16425 12.7868 4 13.5516 4C13.9828 4 14.36 4.05903 14.6834 4.17709C15.0119 4.29001 15.2634 4.44143 15.4379 4.63135V8.64275C15.4379 9.40756 15.6227 9.90545 15.9923 10.1364C15.9974 10.1621 16 10.2109 16 10.2827V10.4213C16 11.1707 15.8024 11.7379 15.4071 12.1229C15.0478 12.4822 14.5525 12.6618 13.9212 12.6618C13.5259 12.6618 13.1666 12.572 12.8432 12.3924C12.525 12.2127 12.2863 11.9509 12.1272 11.607C11.9527 11.607 11.8654 11.6917 11.8654 11.8611C11.8654 11.9792 11.9244 12.0972 12.0425 12.2153C11.8782 12.3487 11.6806 12.4565 11.4496 12.5387C11.2187 12.6208 10.8773 12.6618 10.4256 12.6618C9.97906 12.6618 9.54276 12.5694 9.11672 12.3847C8.58803 12.1588 8.18253 11.8123 7.90021 11.3452C7.55631 10.7909 7.38435 10.0877 7.38435 9.2356V7.30305C7.12257 6.84622 6.99168 6.34319 6.99168 5.79396C6.99168 5.51165 7.02761 5.21907 7.09948 4.91623C7.17134 4.61339 7.28683 4.34391 7.44595 4.10779H9.13982C9.77631 4.10779 10.2742 4.25921 10.6335 4.56206C10.9979 4.85977 11.1802 5.31403 11.1802 5.92485V8.41946C11.1802 8.91736 11.2751 9.16631 11.465 9.16631Z" fill="black"/>
</svg>    