<svg width="185" height="75" viewBox="0 0 185 75" fill="none" xmlns="http://www.w3.org/2000/svg">
    <path d="M7.42629 74.4175L0.432423 31.9113L7.83987 31.9048L12.5741 68.487L13.2826 68.4864L17.8238 31.896L26.5839 31.8883L31.1893 68.4706L31.8979 68.47L36.5679 31.8795L43.46 31.8735L36.5408 74.3919L26.9433 74.4003L22.4667 37.7535L21.887 37.754L17.1526 74.4089L7.42629 74.4175ZM45.8122 74.3838L45.7748 31.8715L52.5382 31.8655L52.5755 74.3778L45.8122 74.3838ZM49.4193 74.3806L49.4143 68.7123L65.0665 68.6986L65.0715 74.3669L49.4193 74.3806ZM49.4026 55.3789L49.3978 49.9682L63.5042 49.9559L63.5089 55.3665L49.4026 55.3789ZM49.3869 37.5366L49.382 31.8683L65.0342 31.8546L65.0392 37.5229L49.3869 37.5366ZM67.9414 74.3643L67.9041 31.852L79.1763 31.8422C80.5504 31.8409 81.9462 31.99 83.3635 32.2894C84.7808 32.5887 86.0911 33.1458 87.2941 33.9606C88.5402 34.7754 89.5288 35.934 90.2602 37.4363C91.0344 38.8957 91.4225 40.7848 91.4246 43.1036C91.4261 44.8642 91.1698 46.3674 90.6556 47.6132C90.1414 48.8589 89.3264 49.8688 88.2106 50.6427C87.1377 51.3737 85.6995 51.8688 83.8962 52.128L83.897 53.0298C87.032 53.3276 89.3303 54.3347 90.7918 56.0511C92.2963 57.7675 93.0498 60.1501 93.0525 63.1989C93.0547 65.6466 92.5841 67.7082 91.6409 69.3838C90.6976 71.0164 89.2816 72.2629 87.3929 73.1234C85.5042 73.941 83.0998 74.351 80.1798 74.3536L67.9414 74.3643ZM74.571 68.819L79.9173 68.8143C82.0644 68.8125 83.6313 68.2958 84.618 67.2643C85.6048 66.1899 86.0972 64.6436 86.0955 62.6253C86.0934 60.2635 85.4262 58.4176 84.0938 57.0876C82.8044 55.7575 80.9788 55.0935 78.617 55.0956L74.559 55.0992L74.571 68.819ZM74.5548 50.3326L77.711 50.3299C80.2016 50.3277 81.9833 49.8108 83.0559 48.7793C84.1715 47.7477 84.7283 46.0939 84.7263 43.818C84.7244 41.628 84.2076 39.9967 83.1761 38.924C82.1875 37.8514 80.5982 37.316 78.4081 37.3179L74.5434 37.3213L74.5548 50.3326ZM102.442 74.3341L110.585 31.8146L121.6 31.8049L129.753 74.3101L122.474 74.3165L116.451 37.4133L115.614 37.4141L109.527 74.3279L102.442 74.3341ZM108.489 65.7619L108.485 60.9309L124.073 60.9173L124.077 65.7482L108.489 65.7619ZM136.181 62.6458L136.176 56.9775L141.201 56.9731C144.121 56.9705 146.31 56.1527 147.768 54.5196C149.227 52.8865 149.955 50.3953 149.952 47.0458C149.949 43.7823 149.281 41.3781 147.949 39.8334C146.616 38.2457 144.597 37.4531 141.892 37.4554L136.159 37.4605L136.154 31.7922L142.66 31.7864C144.378 31.7849 146.074 32.0411 147.749 32.5549C149.467 33.0687 151.014 33.9262 152.389 35.1274C153.764 36.2856 154.861 37.852 155.678 39.8266C156.539 41.7582 156.97 44.1626 156.973 47.0397C156.976 50.6468 156.292 53.6104 154.92 55.9304C153.547 58.2075 151.616 59.9054 149.127 61.0241C146.637 62.0998 143.739 62.6391 140.433 62.642L136.181 62.6458ZM131.876 74.3082L131.839 31.7959L138.602 31.79L138.639 74.3023L131.876 74.3082ZM164.035 62.6213L164.03 56.953L169.054 56.9486C171.974 56.9461 174.163 56.1282 175.622 54.4952C177.08 52.8621 177.808 50.3708 177.805 47.0214C177.802 43.7578 177.135 41.3537 175.802 39.8089C174.47 38.2213 172.451 37.4286 169.745 37.431L164.013 37.436L164.008 31.7677L170.513 31.762C172.231 31.7605 173.927 32.0167 175.603 32.5305C177.321 33.0443 178.867 33.9018 180.243 35.1029C181.618 36.2611 182.714 37.8275 183.532 39.8022C184.392 41.7338 184.824 44.1381 184.826 47.0152C184.829 50.6223 184.145 53.5859 182.773 55.906C181.401 58.1831 179.47 59.881 176.98 60.9997C174.491 62.0754 171.592 62.6147 168.286 62.6176L164.035 62.6213ZM159.729 74.2838L159.692 31.7715L166.455 31.7656L166.493 74.2779L159.729 74.2838Z" fill="#E9410C"/>
    <path d="M6.23779 18.634C5.30211 18.634 4.55513 18.4649 3.99687 18.1268C3.3757 17.773 3.06512 17.2501 3.06512 16.5582L3.06512 10.4841C2.60121 9.8315 2.36926 9.02949 2.36926 8.07808C2.36926 7.11881 2.60121 6.28928 3.06512 5.58949H4.86965C5.79747 5.58949 6.46188 5.88827 6.86289 6.48585C6.66631 6.70601 6.49333 6.98514 6.34394 7.32325C6.19454 7.66135 6.11984 7.9051 6.11984 8.05449C6.11984 8.19603 6.15523 8.30217 6.22599 8.37294C6.30462 8.44371 6.4147 8.47909 6.55623 8.47909C6.83143 7.38615 7.35431 6.58414 8.12488 6.07305C8.76177 5.64059 9.54805 5.42437 10.4837 5.42437C11.6474 5.42437 12.5595 5.67205 13.22 6.16741C13.4559 6.79644 13.5738 7.567 13.5738 8.47909C13.5738 9.38332 13.393 10.205 13.0313 10.9441C12.764 11.0856 12.3944 11.2075 11.9226 11.3097C11.4509 11.4041 10.9752 11.4513 10.4955 11.4513C10.0159 11.4513 9.58344 11.4198 9.19816 11.3569C8.82074 11.2861 8.54554 11.2232 8.37256 11.1682C8.30965 11.2311 8.2782 11.3215 8.2782 11.4395C8.2782 11.5574 8.3529 11.6478 8.50229 11.7107C8.65955 11.7658 8.91902 11.8287 9.28072 11.8994V17.8202C8.42366 18.3627 7.40935 18.634 6.23779 18.634ZM19.9319 13.3383C20.0263 13.3383 20.1285 13.299 20.2386 13.2204C20.1599 12.9609 20.1206 12.556 20.1206 12.0056V6.1792C20.9541 5.67598 21.9566 5.42437 23.1282 5.42437C23.7886 5.42437 24.3666 5.51479 24.8619 5.69563C25.3652 5.86862 25.7504 6.10057 26.0178 6.3915V12.5363C26.0178 13.7079 26.3008 14.4706 26.867 14.8244C26.8748 14.8637 26.8788 14.9384 26.8788 15.0485V15.2608C26.8788 16.4088 26.576 17.2776 25.9706 17.8674C25.4202 18.4178 24.6614 18.693 23.6943 18.693C23.0889 18.693 22.5385 18.5554 22.0431 18.2802C21.5556 18.005 21.19 17.6039 20.9462 17.0771C20.6789 17.0771 20.5452 17.2069 20.5452 17.4663C20.5452 17.6472 20.6356 17.828 20.8165 18.0089C20.5649 18.2133 20.2622 18.3784 19.9083 18.5042C19.5545 18.6301 19.0316 18.693 18.3397 18.693C17.6556 18.693 16.9873 18.5514 16.3347 18.2684C15.5248 17.9224 14.9036 17.3916 14.4712 16.6761C13.9443 15.8269 13.6809 14.7497 13.6809 13.4445L13.6809 10.4841C13.2799 9.78433 13.0794 9.01376 13.0794 8.17244C13.0794 7.73998 13.1345 7.2918 13.2445 6.82789C13.3546 6.36398 13.5315 5.95118 13.7753 5.58949H16.37C17.345 5.58949 18.1077 5.82144 18.6581 6.28535C19.2164 6.7414 19.4955 7.43726 19.4955 8.37294V12.1943C19.4955 12.957 19.641 13.3383 19.9319 13.3383ZM32.7061 9.23392C32.5016 9.29683 32.3994 9.4187 32.3994 9.59955V9.65852C32.3994 9.69783 32.4034 9.72142 32.4112 9.72929C32.4977 9.72142 32.6117 9.71749 32.7533 9.71749H33.0363C33.9327 9.71749 34.7701 9.85509 35.5485 10.1303C36.3348 10.3976 36.9756 10.8301 37.471 11.4277C38.0214 12.1039 38.2966 12.957 38.2966 13.987C38.2966 15.5911 37.7422 16.8019 36.6336 17.6197C35.5249 18.4374 34.0428 18.8463 32.1871 18.8463C30.3315 18.8463 28.8769 18.5396 27.8232 17.9263C26.7775 17.313 26.2546 16.4127 26.2546 15.2254C26.2546 14.7851 26.349 14.3841 26.5377 14.0224C26.7264 13.6529 26.9387 13.3934 27.1746 13.244C27.607 13.6057 28.2321 13.9202 29.0498 14.1875C29.8755 14.447 30.7482 14.5767 31.6682 14.5767C32.0377 14.5767 32.2225 14.4745 32.2225 14.2701C32.2225 14.1757 32.2107 14.0971 32.1871 14.0342C32.1321 14.0421 32.0653 14.046 31.9866 14.046H31.8569C30.19 14.046 28.8572 13.7158 27.8586 13.0553C26.7264 12.3083 26.1602 11.2547 26.1602 9.89441C26.1602 8.53413 26.6674 7.43333 27.6817 6.592C28.8061 5.66418 30.3512 5.20027 32.3169 5.20027C33.284 5.20027 34.1843 5.30249 35.0178 5.50693C35.8591 5.71136 36.5785 5.98263 37.1761 6.32073C37.3255 6.64311 37.4002 7.11881 37.4002 7.74784C37.4002 8.70711 37.1368 9.44229 36.61 9.95338C36.209 9.73322 35.7176 9.55237 35.1357 9.41084C34.5617 9.26144 34.0428 9.18675 33.5789 9.18675C33.115 9.18675 32.824 9.20247 32.7061 9.23392ZM43.7347 13.6568C43.8133 13.7354 43.9077 13.7747 44.0178 13.7747C44.1907 13.7747 44.3087 13.6529 44.3716 13.4091C44.4345 13.1575 44.4659 12.6543 44.4659 11.8994V10.6964C44.4659 10.4841 44.4384 10.3347 44.3834 10.2482C44.3283 10.1617 44.2379 10.1185 44.1121 10.1185C43.9863 10.1185 43.8959 10.146 43.8408 10.2011V11.7815C43.8408 12.2533 43.8055 12.8784 43.7347 13.6568ZM44.2065 3.99726V5.04695C43.546 5.08626 42.9405 5.18848 42.3901 5.3536C41.8397 5.51086 41.5645 5.69563 41.5645 5.90793C41.5645 6.03374 41.6275 6.13596 41.7533 6.21458C42.6182 5.78999 43.5342 5.57769 44.5013 5.57769C46.2312 5.57769 47.6465 6.17527 48.7473 7.37043C49.8559 8.55772 50.4103 10.1067 50.4103 12.0174C50.4103 14.3291 49.7419 16.0707 48.4052 17.2423C47.1865 18.3116 45.5274 18.8463 43.428 18.8463C41.3365 18.8463 39.7954 18.4413 38.8047 17.6315C38.2621 17.1833 37.9909 16.6014 37.9909 15.8859V2.42861C38.3683 2.20845 38.8204 2.02761 39.3472 1.88608C39.8819 1.74454 40.4205 1.67378 40.963 1.67378C41.8673 1.67378 42.6142 1.85069 43.204 2.20452C43.8723 2.62125 44.2065 3.21883 44.2065 3.99726ZM57.0042 18.8463C54.8262 18.8463 53.1082 18.2408 51.8501 17.03C50.5606 15.8112 49.9159 14.1443 49.9159 12.0292C49.9159 9.9062 50.5803 8.22355 51.9091 6.98121C53.1357 5.82537 54.6886 5.24745 56.5678 5.24745C58.4471 5.24745 59.9528 5.7664 61.0851 6.8043C62.2252 7.83433 62.7952 9.10419 62.7952 10.6139C62.7952 11.9584 62.3274 12.9727 61.3917 13.6568C60.5268 14.3015 59.3474 14.6239 57.8534 14.6239C56.7369 14.6239 55.7933 14.392 55.0228 13.9281C54.9599 13.9752 54.9284 14.0617 54.9284 14.1875C54.9284 14.4234 55.239 14.6396 55.8602 14.8362C56.4813 15.0485 57.1851 15.1547 57.9714 15.1547C58.7655 15.1547 59.485 15.0564 60.1297 14.8598C60.7823 14.6554 61.3052 14.4156 61.6984 14.1404C61.8871 14.3055 62.0365 14.6121 62.1465 15.0603C62.2645 15.5006 62.3235 15.9056 62.3235 16.2751C62.3235 16.6368 62.2881 16.9592 62.2173 17.2423C61.604 17.7612 60.975 18.1308 60.3302 18.3509C59.4181 18.6812 58.3095 18.8463 57.0042 18.8463ZM56.8509 10.8615C57.244 10.8615 57.4406 10.7121 57.4406 10.4134C57.4406 10.1303 57.2323 9.98876 56.8155 9.98876C56.3988 9.98876 56.159 10.2129 56.0961 10.661C56.3162 10.7947 56.5678 10.8615 56.8509 10.8615ZM56.5796 4.64594C55.4317 4.64594 54.4213 4.85431 53.5485 5.27104L56.4027 1.14303C57.0082 0.71844 57.6568 0.506143 58.3488 0.506143C59.0486 0.506143 59.6029 0.722372 60.0118 1.15483C60.4285 1.57942 60.6369 2.07085 60.6369 2.62912C60.6369 3.17952 60.46 3.63163 60.1061 3.98546C59.8309 4.26066 59.4063 4.50441 58.8323 4.71671L58.4667 4.85824C57.8613 4.71671 57.2323 4.64594 56.5796 4.64594Z" fill="#B01F44"/>
</svg>
